<svg width="32" height="32" viewBox="0 0 32 32" fill="none" xmlns="http://www.w3.org/2000/svg">
<g clip-path="url(#clip0)">
<path d="M31.997 12.1335C32.0024 12.0772 31.9999 12.0205 31.9906 11.9649C31.9877 11.9457 31.9842 11.9268 31.98 11.9079C31.964 11.8397 31.941 11.7729 31.9048 11.7108L28.566 5.99655C28.5624 5.99047 28.5567 5.98631 28.5535 5.97991C28.55 5.97543 28.549 5.96967 28.5468 5.96487C28.5423 5.95815 28.5359 5.95399 28.5304 5.94727C28.5199 5.93191 28.5068 5.91783 28.4949 5.90311C28.4706 5.87399 28.446 5.84743 28.4178 5.82247C28.4024 5.80903 28.3874 5.79591 28.3714 5.78407C28.3605 5.77543 28.35 5.76647 28.3384 5.75879C28.3074 5.73831 28.2744 5.72327 28.2392 5.70791C28.2213 5.69927 28.2047 5.68967 28.1858 5.68263C28.1727 5.67783 28.1596 5.67271 28.1461 5.66855C28.1416 5.66727 28.1391 5.66471 28.1356 5.66311L20.6044 3.54983C20.5404 3.53191 20.4741 3.52295 20.4082 3.52295H11.1308C11.0616 3.52295 10.9928 3.53319 10.9266 3.55271L3.72371 5.66631C3.72019 5.66695 3.71731 5.67015 3.71379 5.67111C3.70259 5.67463 3.69107 5.67847 3.67987 5.68295C3.66067 5.68967 3.64339 5.70087 3.62483 5.70951C3.58931 5.72615 3.55444 5.74279 3.52243 5.76423C3.51251 5.77127 3.50355 5.77863 3.49427 5.78599C3.47763 5.79815 3.46291 5.81255 3.44755 5.82631C3.41907 5.85191 3.39315 5.87943 3.36852 5.90919C3.35731 5.92359 3.34483 5.93607 3.33459 5.95143C3.33075 5.95783 3.32467 5.96103 3.32019 5.96711C3.31635 5.97319 3.31539 5.97991 3.31219 5.98599C3.30739 5.99367 3.30035 5.99975 3.29555 6.00807L0.087875 11.7217C0.053955 11.7815 0.033155 11.8455 0.017475 11.9114C0.013315 11.9293 0.011075 11.9469 0.00819498 11.9649C-0.00012502 12.0202 -0.00236502 12.0759 0.00179498 12.1316C0.00307498 12.1469 0.00211498 12.162 0.00435498 12.1774C0.012995 12.2385 0.027395 12.299 0.051715 12.3575C0.054275 12.3639 0.058755 12.3687 0.061315 12.3754C0.067395 12.3889 0.076035 12.4007 0.083075 12.4138C0.110595 12.4663 0.143875 12.5137 0.182915 12.5575C0.189955 12.5658 0.193795 12.5761 0.201155 12.5841L15.4805 28.2574C15.5167 28.2938 15.5557 28.3262 15.5973 28.3543C15.6012 28.3569 15.6053 28.3585 15.6095 28.361C15.6591 28.393 15.7119 28.4164 15.7663 28.4346C15.7749 28.4378 15.7823 28.4433 15.7912 28.4458C15.7999 28.4481 15.8082 28.4481 15.8168 28.45C15.8767 28.466 15.9375 28.4762 15.9992 28.4772C15.9992 28.4772 15.9996 28.4772 15.9999 28.4772C15.9999 28.4772 16.0002 28.4772 16.0008 28.4772C16.0626 28.4762 16.1237 28.4663 16.1832 28.45C16.1919 28.4481 16.2002 28.4484 16.2092 28.4458C16.2175 28.4433 16.2252 28.4375 16.2335 28.4346C16.2879 28.4161 16.3413 28.3927 16.3903 28.361C16.3938 28.3591 16.398 28.3582 16.4005 28.3549C16.4008 28.3549 16.4008 28.3549 16.4008 28.3549C16.4015 28.3549 16.4018 28.3543 16.4021 28.3543C16.4437 28.3265 16.4828 28.2942 16.5192 28.2574L31.7983 12.5841C31.8066 12.5757 31.8095 12.5655 31.8168 12.5572C31.8552 12.514 31.8879 12.4673 31.9154 12.4161C31.9234 12.4017 31.9324 12.3882 31.9391 12.3732C31.9426 12.3661 31.9474 12.3601 31.9503 12.3527C31.9736 12.2954 31.9884 12.2356 31.996 12.1757C31.998 12.1614 31.9964 12.1479 31.997 12.1335ZM26.0901 7.57607L25.2168 8.71079L21.4255 13.6369L17.3295 9.77767L21.8034 8.65319L26.0901 7.57607ZM15.6143 24.9777C14.5605 22.4852 12.9612 18.7044 11.9916 16.411C11.8501 16.0759 11.7237 15.7773 11.6124 15.5146C11.6021 15.4893 11.5912 15.4647 11.5813 15.441H20.4168L17.0152 23.4849L15.9992 25.8878C15.8828 25.6122 15.7522 25.3031 15.6143 24.9777ZM13.998 10.2253L10.5551 13.6276L5.81427 7.59111L14.444 9.78439L13.998 10.2253ZM23.3976 13.4545L25.8796 10.2292L27.8568 7.65991L30.174 11.6237L23.3976 13.4545ZM11.2348 4.97543H20.308L25.1167 6.32487L22.6514 6.94471L15.868 8.64967L6.67539 6.31367L11.2348 4.97543ZM3.09555 13.4746L9.96404 15.3415C9.9986 15.4231 10.0408 15.5233 10.0933 15.6481C10.4914 16.5892 11.4613 18.8836 13.8316 24.4881L3.09555 13.4746Z" fill="#176BCE"/>
</g>
<defs>
<clipPath id="clip0">
<rect width="32" height="32" fill="white"/>
</clipPath>
</defs>
</svg>
