<svg width="40" height="40" viewBox="0 0 40 40" fill="none" xmlns="http://www.w3.org/2000/svg">
<path fill-rule="evenodd" clip-rule="evenodd" d="M14.072 25.488L12.7387 23.1787L8.11867 25.8453L9.452 28.1547L14.072 25.488ZM17.488 12.7373L14.8213 8.12L12.512 9.45333L15.1787 14.0707L17.488 12.7373ZM14.072 15.1787L9.452 12.512L8.11867 14.8213L12.7387 17.488L14.072 15.1787ZM17.488 27.928L15.1787 26.5947L12.512 31.2133L14.8213 32.5467L17.488 27.928ZM7 21.6667H12.3333V19H7V21.6667ZM19 33.6667H21.6667V28.3333H19V33.6667ZM20.3333 7C27.6973 7 33.6667 12.9693 33.6667 20.3333C33.6667 25.268 30.9853 29.576 27.0013 31.8827L27 31.88L20.3333 20.3333V7Z" fill="#176BCE"/>
</svg>
