<svg width="32" height="32" viewBox="0 0 32 32" fill="none" xmlns="http://www.w3.org/2000/svg">
<path d="M30 2V2.9999V17.9999H14V2H30ZM23 4.99993H21L17 15H19L19.8008 12.9999H24.1992L25 15H27L23 4.99993ZM22 7.49997L23.4004 10.9999H20.5996L22 7.49997ZM12 14V16H4V27.9999H16V19.9999H18V30H2V14H12ZM11 17V19H15V20.9999H12.9453C12.7874 22.3859 12.295 23.5109 11.6094 24.3886C12.6383 24.8292 13.878 25 15 25V26.9999C13.4413 26.9999 11.5917 26.7626 10 25.8105C8.40834 26.7627 6.55867 26.9999 5 26.9999V25C6.12205 25 7.36169 24.8291 8.39062 24.3886C7.705 23.5109 7.21263 22.3859 7.05469 20.9999H5V19H9V17H11ZM10.9316 20.9999H9.06832C9.19976 21.9999 9.53169 22.7139 9.99996 23.2519C10.4682 22.7139 10.8002 21.9999 10.9316 20.9999Z" fill="#176BCE"/>
</svg>
