<svg width="51" height="14" viewBox="0 0 51 14" fill="none" xmlns="http://www.w3.org/2000/svg">
<path d="M8.008 5.988H9.73V9.894C9.226 10.2953 8.638 10.6033 7.966 10.818C7.294 11.0327 6.60333 11.14 5.894 11.14C4.89533 11.14 3.99467 10.9253 3.192 10.496C2.38933 10.0573 1.75933 9.45533 1.302 8.69C0.844667 7.92467 0.616 7.06133 0.616 6.1C0.616 5.13867 0.844667 4.27533 1.302 3.51C1.75933 2.74467 2.38933 2.14733 3.192 1.718C4.004 1.27933 4.914 1.06 5.922 1.06C6.74333 1.06 7.49 1.19533 8.162 1.466C8.834 1.73667 9.39867 2.13333 9.856 2.656L8.708 3.776C7.96133 3.02933 7.06067 2.656 6.006 2.656C5.31533 2.656 4.69933 2.80067 4.158 3.09C3.626 3.37933 3.206 3.78533 2.898 4.308C2.59933 4.83067 2.45 5.428 2.45 6.1C2.45 6.75333 2.59933 7.34133 2.898 7.864C3.206 8.38667 3.626 8.79733 4.158 9.096C4.69933 9.39467 5.31067 9.544 5.992 9.544C6.75733 9.544 7.42933 9.376 8.008 9.04V5.988ZM37.4293 3.524V9.866C37.4293 12.498 36.0853 13.814 33.3973 13.814C32.6787 13.814 31.9973 13.7207 31.3533 13.534C30.7093 13.3567 30.1773 13.0953 29.7573 12.75L30.5413 11.434C30.868 11.7047 31.2787 11.9193 31.7733 12.078C32.2773 12.246 32.786 12.33 33.2993 12.33C34.1207 12.33 34.7227 12.1433 35.1053 11.77C35.488 11.3967 35.6793 10.8273 35.6793 10.062V9.67C35.3807 9.99667 35.0167 10.244 34.5873 10.412C34.158 10.58 33.6867 10.664 33.1733 10.664C32.464 10.664 31.82 10.5147 31.2413 10.216C30.672 9.908 30.2193 9.47867 29.8833 8.928C29.5567 8.37733 29.3933 7.74733 29.3933 7.038C29.3933 6.32867 29.5567 5.70333 29.8833 5.162C30.2193 4.61133 30.672 4.18667 31.2413 3.888C31.82 3.58933 32.464 3.44 33.1733 3.44C33.7147 3.44 34.2047 3.52867 34.6433 3.706C35.0913 3.88333 35.4647 4.154 35.7633 4.518V3.524H37.4293ZM33.4393 9.18C34.102 9.18 34.6433 8.984 35.0633 8.592C35.4927 8.19067 35.7073 7.67267 35.7073 7.038C35.7073 6.41267 35.4927 5.904 35.0633 5.512C34.6433 5.12 34.102 4.924 33.4393 4.924C32.7673 4.924 32.2167 5.12 31.7873 5.512C31.3673 5.904 31.1573 6.41267 31.1573 7.038C31.1573 7.67267 31.3673 8.19067 31.7873 8.592C32.2167 8.984 32.7673 9.18 33.4393 9.18Z" fill="#5087EC"/>
<path d="M15.3225 11.098C14.5665 11.098 13.8851 10.9347 13.2785 10.608C12.6718 10.2813 12.1958 9.82867 11.8505 9.25C11.5145 8.662 11.3465 7.99933 11.3465 7.262C11.3465 6.52467 11.5145 5.86667 11.8505 5.288C12.1958 4.70933 12.6718 4.25667 13.2785 3.93C13.8851 3.60333 14.5665 3.44 15.3225 3.44C16.0878 3.44 16.7738 3.60333 17.3805 3.93C17.9871 4.25667 18.4585 4.70933 18.7945 5.288C19.1398 5.86667 19.3125 6.52467 19.3125 7.262C19.3125 7.99933 19.1398 8.662 18.7945 9.25C18.4585 9.82867 17.9871 10.2813 17.3805 10.608C16.7738 10.9347 16.0878 11.098 15.3225 11.098ZM15.3225 9.6C15.9665 9.6 16.4985 9.38533 16.9185 8.956C17.3385 8.52667 17.5485 7.962 17.5485 7.262C17.5485 6.562 17.3385 5.99733 16.9185 5.568C16.4985 5.13867 15.9665 4.924 15.3225 4.924C14.6785 4.924 14.1465 5.13867 13.7265 5.568C13.3158 5.99733 13.1105 6.562 13.1105 7.262C13.1105 7.962 13.3158 8.52667 13.7265 8.956C14.1465 9.38533 14.6785 9.6 15.3225 9.6ZM50.8049 7.304C50.8049 7.42533 50.7956 7.598 50.7769 7.822H44.9109C45.0136 8.37267 45.2796 8.81133 45.7089 9.138C46.1476 9.45533 46.6889 9.614 47.3329 9.614C48.1542 9.614 48.8309 9.34333 49.3629 8.802L50.3009 9.88C49.9649 10.2813 49.5402 10.5847 49.0269 10.79C48.5136 10.9953 47.9349 11.098 47.2909 11.098C46.4696 11.098 45.7462 10.9347 45.1209 10.608C44.4956 10.2813 44.0102 9.82867 43.6649 9.25C43.3289 8.662 43.1609 7.99933 43.1609 7.262C43.1609 6.534 43.3242 5.88067 43.6509 5.302C43.9869 4.714 44.4489 4.25667 45.0369 3.93C45.6249 3.60333 46.2876 3.44 47.0249 3.44C47.7529 3.44 48.4016 3.60333 48.9709 3.93C49.5496 4.24733 49.9976 4.7 50.3149 5.288C50.6416 5.86667 50.8049 6.53867 50.8049 7.304ZM47.0249 4.84C46.4649 4.84 45.9889 5.008 45.5969 5.344C45.2142 5.67067 44.9809 6.10933 44.8969 6.66H49.1389C49.0642 6.11867 48.8356 5.68 48.4529 5.344C48.0702 5.008 47.5942 4.84 47.0249 4.84Z" fill="#D95040"/>
<path d="M24.3459 11.098C23.5899 11.098 22.9086 10.9347 22.3019 10.608C21.6952 10.2813 21.2192 9.82867 20.8739 9.25C20.5379 8.662 20.3699 7.99933 20.3699 7.262C20.3699 6.52467 20.5379 5.86667 20.8739 5.288C21.2192 4.70933 21.6952 4.25667 22.3019 3.93C22.9086 3.60333 23.5899 3.44 24.3459 3.44C25.1112 3.44 25.7972 3.60333 26.4039 3.93C27.0106 4.25667 27.4819 4.70933 27.8179 5.288C28.1632 5.86667 28.3359 6.52467 28.3359 7.262C28.3359 7.99933 28.1632 8.662 27.8179 9.25C27.4819 9.82867 27.0106 10.2813 26.4039 10.608C25.7972 10.9347 25.1112 11.098 24.3459 11.098ZM24.3459 9.6C24.9899 9.6 25.5219 9.38533 25.9419 8.956C26.3619 8.52667 26.5719 7.962 26.5719 7.262C26.5719 6.562 26.3619 5.99733 25.9419 5.568C25.5219 5.13867 24.9899 4.924 24.3459 4.924C23.7019 4.924 23.1699 5.13867 22.7499 5.568C22.3392 5.99733 22.1339 6.562 22.1339 7.262C22.1339 7.962 22.3392 8.52667 22.7499 8.956C23.1699 9.38533 23.7019 9.6 24.3459 9.6Z" fill="#F2BD42"/>
<path d="M39.73 0.611999H41.48V11H39.73V0.611999Z" fill="#58A55C"/>
</svg>
