<svg width="123" height="28" viewBox="0 0 123 28" fill="none" xmlns="http://www.w3.org/2000/svg">
<path d="M40.3396 5.864V23H52.4596V19.832H44.1076V5.864H40.3396ZM54.0622 14.408C54.1102 13.608 54.3102 12.944 54.6622 12.416C55.0142 11.888 55.4622 11.464 56.0062 11.144C56.5502 10.824 57.1582 10.6 57.8302 10.472C58.5182 10.328 59.2062 10.256 59.8942 10.256C60.5182 10.256 61.1502 10.304 61.7902 10.4C62.4302 10.48 63.0142 10.648 63.5422 10.904C64.0702 11.16 64.5022 11.52 64.8382 11.984C65.1742 12.432 65.3422 13.032 65.3422 13.784V20.24C65.3422 20.8 65.3742 21.336 65.4382 21.848C65.5022 22.36 65.6142 22.744 65.7742 23H62.3182C62.2542 22.808 62.1982 22.616 62.1502 22.424C62.1182 22.216 62.0942 22.008 62.0782 21.8C61.5342 22.36 60.8942 22.752 60.1582 22.976C59.4222 23.2 58.6702 23.312 57.9022 23.312C57.3102 23.312 56.7582 23.24 56.2462 23.096C55.7342 22.952 55.2862 22.728 54.9022 22.424C54.5182 22.12 54.2142 21.736 53.9902 21.272C53.7822 20.808 53.6782 20.256 53.6782 19.616C53.6782 18.912 53.7982 18.336 54.0382 17.888C54.2942 17.424 54.6142 17.056 54.9982 16.784C55.3982 16.512 55.8462 16.312 56.3422 16.184C56.8542 16.04 57.3662 15.928 57.8782 15.848C58.3902 15.768 58.8942 15.704 59.3902 15.656C59.8862 15.608 60.3262 15.536 60.7102 15.44C61.0942 15.344 61.3982 15.208 61.6222 15.032C61.8462 14.84 61.9502 14.568 61.9342 14.216C61.9342 13.848 61.8702 13.56 61.7422 13.352C61.6302 13.128 61.4702 12.96 61.2622 12.848C61.0702 12.72 60.8382 12.64 60.5662 12.608C60.3102 12.56 60.0302 12.536 59.7262 12.536C59.0542 12.536 58.5262 12.68 58.1422 12.968C57.7582 13.256 57.5342 13.736 57.4702 14.408H54.0622ZM61.9342 16.928C61.7902 17.056 61.6062 17.16 61.3822 17.24C61.1742 17.304 60.9422 17.36 60.6862 17.408C60.4462 17.456 60.1902 17.496 59.9182 17.528C59.6462 17.56 59.3742 17.6 59.1022 17.648C58.8462 17.696 58.5902 17.76 58.3342 17.84C58.0942 17.92 57.8782 18.032 57.6862 18.176C57.5102 18.304 57.3662 18.472 57.2542 18.68C57.1422 18.888 57.0862 19.152 57.0862 19.472C57.0862 19.776 57.1422 20.032 57.2542 20.24C57.3662 20.448 57.5182 20.616 57.7102 20.744C57.9022 20.856 58.1262 20.936 58.3822 20.984C58.6382 21.032 58.9022 21.056 59.1742 21.056C59.8462 21.056 60.3662 20.944 60.7342 20.72C61.1022 20.496 61.3742 20.232 61.5502 19.928C61.7262 19.608 61.8302 19.288 61.8622 18.968C61.9102 18.648 61.9342 18.392 61.9342 18.2V16.928ZM67.9874 10.592V23H71.3954V16.496C71.3954 15.232 71.6034 14.328 72.0194 13.784C72.4354 13.224 73.1074 12.944 74.0354 12.944C74.8514 12.944 75.4194 13.2 75.7394 13.712C76.0594 14.208 76.2194 14.968 76.2194 15.992V23H79.6274V15.368C79.6274 14.6 79.5554 13.904 79.4114 13.28C79.2834 12.64 79.0514 12.104 78.7154 11.672C78.3794 11.224 77.9154 10.88 77.3234 10.64C76.7474 10.384 76.0034 10.256 75.0914 10.256C74.3714 10.256 73.6674 10.424 72.9794 10.76C72.2914 11.08 71.7314 11.6 71.2994 12.32H71.2274V10.592H67.9874ZM87.998 20.072C87.47 20.072 87.03 19.96 86.678 19.736C86.326 19.512 86.038 19.224 85.814 18.872C85.606 18.52 85.454 18.128 85.358 17.696C85.278 17.248 85.238 16.8 85.238 16.352C85.238 15.888 85.286 15.448 85.382 15.032C85.494 14.6 85.662 14.224 85.886 13.904C86.126 13.568 86.414 13.304 86.75 13.112C87.102 12.92 87.518 12.824 87.998 12.824C88.558 12.824 89.022 12.928 89.39 13.136C89.758 13.344 90.054 13.624 90.278 13.976C90.502 14.328 90.662 14.736 90.758 15.2C90.854 15.648 90.902 16.128 90.902 16.64C90.902 17.088 90.838 17.52 90.71 17.936C90.598 18.336 90.422 18.696 90.182 19.016C89.942 19.336 89.638 19.592 89.27 19.784C88.902 19.976 88.478 20.072 87.998 20.072ZM94.142 22.208V10.592H90.902V12.248H90.854C90.438 11.528 89.918 11.016 89.294 10.712C88.686 10.408 87.974 10.256 87.158 10.256C86.294 10.256 85.526 10.424 84.854 10.76C84.198 11.096 83.646 11.552 83.198 12.128C82.75 12.688 82.406 13.344 82.166 14.096C81.942 14.832 81.83 15.6 81.83 16.4C81.83 17.248 81.926 18.056 82.118 18.824C82.326 19.576 82.646 20.24 83.078 20.816C83.51 21.376 84.062 21.824 84.734 22.16C85.406 22.48 86.206 22.64 87.134 22.64C87.886 22.64 88.598 22.488 89.27 22.184C89.958 21.864 90.486 21.376 90.854 20.72H90.902V22.352C90.918 23.232 90.702 23.96 90.254 24.536C89.822 25.112 89.126 25.4 88.166 25.4C87.558 25.4 87.022 25.272 86.558 25.016C86.094 24.776 85.782 24.336 85.622 23.696H82.238C82.286 24.4 82.478 25 82.814 25.496C83.166 26.008 83.598 26.424 84.11 26.744C84.638 27.064 85.214 27.296 85.838 27.44C86.478 27.6 87.102 27.68 87.71 27.68C89.134 27.68 90.27 27.488 91.118 27.104C91.966 26.72 92.614 26.248 93.062 25.688C93.51 25.144 93.798 24.552 93.926 23.912C94.07 23.272 94.142 22.704 94.142 22.208ZM100.39 8.672V5.864H96.9818V8.672H100.39ZM96.9818 10.592V23H100.39V10.592H96.9818ZM103.817 12.872V23H107.225V12.872H109.577V10.592H107.225V9.848C107.225 9.336 107.321 8.976 107.513 8.768C107.721 8.544 108.057 8.432 108.521 8.432C108.953 8.432 109.369 8.456 109.769 8.504V5.96C109.481 5.944 109.185 5.928 108.881 5.912C108.577 5.88 108.273 5.864 107.969 5.864C106.577 5.864 105.537 6.216 104.849 6.92C104.161 7.624 103.817 8.528 103.817 9.632V10.592H101.777V12.872H103.817ZM117.186 24.536L122.37 10.592H118.842L116.13 19.088H116.082L113.274 10.592H109.65L113.994 22.232C114.09 22.472 114.138 22.728 114.138 23C114.138 23.368 114.026 23.704 113.802 24.008C113.594 24.312 113.266 24.488 112.818 24.536C112.482 24.552 112.146 24.544 111.81 24.512C111.474 24.48 111.146 24.448 110.826 24.416V27.224C111.178 27.256 111.522 27.28 111.858 27.296C112.21 27.328 112.562 27.344 112.914 27.344C114.082 27.344 114.994 27.128 115.65 26.696C116.306 26.264 116.818 25.544 117.186 24.536Z" fill="#176BCE"/>
<path d="M19.6538 25.816C19.6538 23.3036 19.159 20.8157 18.1975 18.4945C17.236 16.1733 15.8268 14.0642 14.0502 12.2876C12.2736 10.5111 10.1645 9.1018 7.84332 8.14033C5.52211 7.17885 3.03426 6.68399 0.521805 6.68399V25.816H19.6538Z" fill="#1D65F5"/>
<path opacity="0.4" d="M26.9731 19.3421C26.9731 16.8296 26.4782 14.3417 25.5167 12.0205C24.5552 9.69934 23.146 7.59024 21.3694 5.81366C19.5928 4.03709 17.4837 2.62784 15.1625 1.66636C12.8413 0.704886 10.3535 0.210022 7.84102 0.210022V19.3421H26.9731Z" fill="#1D65F5"/>
</svg>
